<?xml version="1.0" standalone="no"?>
<!DOCTYPE svg PUBLIC "-//W3C//DTD SVG 20010904//EN"
 "http://www.w3.org/TR/2001/REC-SVG-20010904/DTD/svg10.dtd">
<svg version="1.0" xmlns="http://www.w3.org/2000/svg"
 width="640.000000pt" height="640.000000pt" viewBox="0 0 640.000000 640.000000"
 preserveAspectRatio="xMidYMid meet">

<g transform="translate(0.000000,640.000000) scale(0.100000,-0.100000)"
fill="#000000" stroke="none">
<path d="M0 3200 l0 -3200 3200 0 3200 0 0 3200 0 3200 -3200 0 -3200 0 0
-3200z m3005 2840 c253 -83 471 -155 484 -161 13 -5 73 -26 134 -45 128 -42
158 -39 194 15 29 43 29 60 0 102 -20 30 -37 39 -145 74 -67 22 -122 43 -122
46 0 4 39 24 88 45 82 37 93 39 187 39 91 0 105 -3 158 -30 106 -53 115 -69
460 -758 174 -350 317 -640 317 -645 0 -6 -192 -12 -467 -15 -258 -3 -531 -11
-608 -17 -879 -67 -1673 -187 -2240 -336 -155 -41 -149 -40 -141 -18 4 10 21
57 36 104 16 47 85 252 155 455 70 204 160 467 200 585 40 118 83 242 94 275
69 193 233 351 431 413 88 28 109 31 225 27 98 -3 108 -6 560 -155z m1693
-1526 l52 -7 0 -208 0 -208 -92 25 c-141 38 -404 74 -544 74 -135 0 -166 -12
-179 -69 -7 -35 16 -95 42 -109 10 -5 79 -12 153 -16 204 -10 385 -39 548 -89
l72 -22 0 -42 0 -42 -387 -3 c-385 -3 -388 -3 -433 -27 -57 -30 -116 -86 -141
-133 l-19 -38 -120 0 -120 0 -14 33 c-22 52 -73 103 -134 134 l-57 28 -542 3
c-506 2 -543 4 -543 20 1 40 29 134 54 176 15 26 105 125 200 219 l173 173
224 27 c262 32 577 62 809 77 347 24 890 36 998 24z m487 -40 c190 -21 391
-72 382 -97 -6 -20 -142 -90 -174 -91 -18 0 -27 -3 -21 -7 13 -8 8 -11 -104
-54 -92 -36 -275 -95 -292 -95 -20 0 -21 12 -18 202 l3 169 42 -5 c23 -3 105
-13 182 -22z m-2945 -228 c-121 -121 -179 -234 -198 -381 l-7 -60 -238 -3
-237 -2 -1 162 c0 90 -2 171 -4 181 -5 25 32 39 190 72 71 14 132 28 135 30 4
2 33 9 66 14 32 6 86 15 119 22 276 52 264 54 175 -35z m-891 -301 l0 -165
-27 0 c-102 2 -390 56 -460 88 l-43 19 25 20 c54 43 186 104 209 98 15 -4 18
-3 9 3 -11 7 -10 10 5 15 10 3 70 24 133 46 63 22 123 40 132 40 15 1 17 -15
17 -164z m914 -372 c-5 -16 -8 -104 -8 -198 1 -190 11 -240 71 -355 70 -134
187 -233 339 -286 69 -24 96 -28 190 -28 165 0 303 48 431 150 143 114 241
294 260 479 l7 65 97 0 c109 0 110 -1 110 -72 0 -54 34 -168 72 -243 90 -176
245 -303 434 -357 144 -41 340 -27 442 33 18 10 36 19 39 19 3 0 3 -64 0 -142
-4 -113 -11 -167 -35 -258 -97 -376 -357 -691 -707 -856 -195 -92 -395 -131
-620 -121 -585 26 -1110 370 -1365 892 -87 179 -138 356 -160 560 -14 128 -24
137 -172 145 -127 7 -169 23 -242 90 -164 151 -104 419 111 496 29 10 118 13
376 14 l337 0 -7 -27z m1059 -3 l30 -31 -4 -132 c-4 -116 -8 -140 -32 -197
-47 -108 -131 -199 -236 -254 -88 -46 -155 -60 -255 -53 -132 8 -234 68 -309
181 -51 77 -66 146 -66 304 0 144 11 185 53 202 12 5 194 9 405 9 l384 1 30
-30z m1500 0 l30 -30 -4 -178 c-4 -176 -4 -177 -35 -237 -68 -130 -195 -215
-333 -223 -148 -9 -274 40 -381 147 -105 105 -149 220 -149 387 0 93 16 139
53 154 12 5 194 9 405 9 l384 1 30 -30z m-2644 -1838 c48 -51 165 -149 246
-206 305 -218 727 -342 1099 -322 l118 6 -3 -117 -3 -116 -62 -34 c-341 -183
-957 -86 -1370 216 l-63 46 0 278 c0 152 3 277 6 277 3 0 17 -13 32 -28z m147
-886 c108 -52 196 -87 290 -116 39 -12 77 -25 85 -27 8 -3 33 -8 55 -10 22 -2
73 -10 114 -18 40 -8 89 -15 108 -15 24 0 33 -4 30 -12 -146 -335 -170 -382
-212 -414 -31 -23 -48 -29 -89 -29 -44 0 -67 9 -166 64 -104 58 -249 150 -275
174 -7 7 -6 7 3 3 6 -4 12 -2 12 4 0 7 -7 9 -16 6 -21 -8 -129 78 -256 206
-131 130 -131 138 -5 280 l58 66 87 -60 c48 -32 128 -79 177 -102z m1489 -122
c134 -120 134 -155 3 -280 -87 -84 -193 -172 -265 -219 -64 -42 -76 -31 -141
116 -30 68 -67 152 -82 186 -16 34 -35 77 -43 96 l-14 34 55 7 c100 12 217 47
303 90 47 24 88 44 92 45 4 0 45 -33 92 -75z"/>
<path d="M3155 4190 c-267 -29 -569 -114 -609 -172 -26 -36 -21 -95 11 -124
41 -38 60 -38 163 0 142 53 358 94 552 105 l163 10 28 31 c38 42 37 92 -2 131
-29 29 -31 29 -133 28 -57 -1 -134 -5 -173 -9z"/>
<path d="M3403 2815 c-31 -31 -35 -40 -30 -72 8 -46 47 -86 117 -121 51 -25
64 -27 180 -27 118 0 128 2 182 29 82 42 111 74 110 128 -1 35 -6 48 -32 71
-39 35 -68 34 -137 -5 -48 -27 -67 -32 -123 -32 -56 0 -75 5 -123 32 -74 42
-100 41 -144 -3z"/>
<path d="M2924 2557 c-17 -12 -65 -53 -107 -90 -86 -77 -101 -111 -73 -165 20
-40 48 -54 93 -50 34 3 36 1 54 -46 72 -181 262 -324 513 -386 80 -20 108 -22
245 -17 131 4 169 9 236 31 148 48 245 104 331 192 55 56 118 152 129 197 6
22 13 27 40 27 39 0 80 30 92 67 18 52 -1 86 -88 160 -108 90 -128 103 -167
103 -36 0 -92 -45 -92 -74 0 -14 -53 -16 -520 -16 -487 0 -521 1 -527 18 -3 9
-17 29 -31 45 -32 34 -83 36 -128 4z m1236 -275 c0 -20 -61 -101 -104 -139
-59 -52 -192 -117 -271 -134 -89 -19 -277 -16 -355 5 -150 39 -281 127 -335
223 -14 25 -25 47 -25 49 0 2 245 4 545 4 300 0 545 -4 545 -8z"/>
<path d="M2800 3478 c-93 -43 -170 -126 -170 -182 0 -59 36 -95 95 -96 35 0
47 6 85 45 81 82 149 82 230 0 38 -39 50 -45 86 -45 79 0 119 83 74 155 -26
42 -97 100 -152 125 -61 28 -187 27 -248 -2z"/>
<path d="M4220 3474 c-59 -27 -132 -92 -157 -138 -34 -64 13 -136 89 -136 34
0 47 7 91 50 81 80 128 79 214 -1 44 -41 58 -49 91 -49 50 0 88 29 96 75 8 43
-8 76 -66 132 -66 64 -137 93 -228 93 -59 0 -87 -6 -130 -26z"/>
</g>
</svg>
